<?xml version="1.0" encoding="UTF-8" standalone="no"?>
<!DOCTYPE svg PUBLIC "-//W3C//DTD SVG 1.1//EN" "http://www.w3.org/Graphics/SVG/1.1/DTD/svg11.dtd">
<svg width="100%" height="100%" viewBox="0 0 864 490" version="1.1" xmlns="http://www.w3.org/2000/svg" xmlns:xlink="http://www.w3.org/1999/xlink" xml:space="preserve" xmlns:serif="http://www.serif.com/" style="fill-rule:evenodd;clip-rule:evenodd;stroke-linejoin:round;stroke-miterlimit:10;">
    <g transform="matrix(1,0,0,1,-67.9584,-36.3304)">
        <g>
            <clipPath id="_clip1">
                <path d="M67.56,526.56L931.558,526.56L931.558,40.538L67.56,40.538L67.56,526.56Z" clip-rule="nonzero"/>
            </clipPath>
            <g clip-path="url(#_clip1)">
                <g transform="matrix(4.68444,0,6.51928e-08,4.68139,67.56,40.7247)">
                    <rect x="0.085" y="0.05" width="184.32" height="103.68" style="fill:white;"/>
                </g>
                <g transform="matrix(4.68444,0,6.51928e-08,4.68139,67.56,45.5748)">
                    <rect x="23.125" y="11.455" width="142.85" height="79.834" style="fill:white;"/>
                </g>
                <g transform="matrix(6.51928e-08,4.68139,4.68444,0,474.933,14.8227)">
                    <path d="M97.858,11.175L98.418,11.175" style="fill:none;fill-rule:nonzero;stroke:black;stroke-width:0.14px;"/>
                </g>
                <g transform="matrix(4.68444,0,6.51928e-08,4.68139,67.56,453.517)">
                    <path d="M95.083,5.881C94.759,5.881 94.514,6.041 94.35,6.361C94.187,6.68 94.105,7.161 94.105,7.803C94.105,8.442 94.187,8.922 94.35,9.242C94.514,9.562 94.759,9.722 95.083,9.722C95.411,9.722 95.656,9.562 95.819,9.242C95.983,8.922 96.065,8.442 96.065,7.803C96.065,7.161 95.983,6.68 95.819,6.361C95.656,6.041 95.411,5.881 95.083,5.881ZM95.083,5.381C95.607,5.381 96.006,5.588 96.282,6.002C96.558,6.415 96.696,7.016 96.696,7.803C96.696,8.588 96.558,9.188 96.282,9.602C96.006,10.015 95.607,10.222 95.083,10.222C94.561,10.222 94.161,10.015 93.885,9.602C93.609,9.188 93.471,8.588 93.471,7.803C93.471,7.016 93.609,6.415 93.885,6.002C94.161,5.588 94.561,5.381 95.083,5.381Z" style="fill-rule:nonzero;"/>
                </g>
                <g transform="matrix(4.68444,0,6.51928e-08,4.68139,67.56,471.612)">
                    <rect x="97.805" y="5.472" width="0.66" height="0.794"/>
                </g>
                <g transform="matrix(4.68444,0,6.51928e-08,4.68139,67.56,453.91)">
                    <path d="M99.846,5.381L102.32,5.381L102.32,5.913L100.42,5.913L100.42,7.056C100.52,7.025 100.61,7.001 100.7,6.986C100.79,6.971 100.88,6.963 100.97,6.963C101.5,6.963 101.91,7.106 102.21,7.391C102.52,7.676 102.67,8.063 102.67,8.55C102.67,9.052 102.51,9.442 102.2,9.721C101.89,9.999 101.45,10.138 100.88,10.138C100.68,10.138 100.48,10.121 100.28,10.088C100.08,10.055 99.866,10.005 99.649,9.938L99.649,9.303C99.837,9.405 100.03,9.481 100.23,9.531C100.43,9.581 100.64,9.606 100.86,9.606C101.23,9.606 101.51,9.511 101.72,9.322C101.93,9.133 102.04,8.875 102.04,8.55C102.04,8.225 101.93,7.968 101.72,7.779C101.51,7.589 101.23,7.494 100.86,7.494C100.7,7.494 100.53,7.513 100.36,7.55C100.19,7.587 100.02,7.646 99.846,7.725L99.846,5.381Z" style="fill-rule:nonzero;"/>
                </g>
                <g transform="matrix(-4.68444,0,6.51928e-08,4.68139,281.592,385.332)">
                    <path d="M22.565,15.084L23.125,15.084" style="fill:none;fill-rule:nonzero;stroke:black;stroke-width:0.14px;"/>
                </g>
                <g transform="matrix(4.68444,0,6.51928e-08,4.68139,67.56,386.291)">
                    <path d="M19.967,13.061C19.642,13.061 19.398,13.221 19.234,13.541C19.071,13.86 18.989,14.341 18.989,14.983C18.989,15.622 19.071,16.102 19.234,16.422C19.398,16.742 19.642,16.902 19.967,16.902C20.294,16.902 20.54,16.742 20.703,16.422C20.867,16.102 20.949,15.622 20.949,14.983C20.949,14.341 20.867,13.86 20.703,13.541C20.54,13.221 20.294,13.061 19.967,13.061ZM19.967,12.561C20.49,12.561 20.89,12.768 21.166,13.182C21.442,13.595 21.58,14.196 21.58,14.983C21.58,15.768 21.442,16.368 21.166,16.782C20.89,17.195 20.49,17.402 19.967,17.402C19.444,17.402 19.045,17.195 18.769,16.782C18.493,16.368 18.355,15.768 18.355,14.983C18.355,14.196 18.493,13.595 18.769,13.182C19.045,12.768 19.444,12.561 19.967,12.561Z" style="fill-rule:nonzero;"/>
                </g>
                <g transform="matrix(-4.68444,0,6.51928e-08,4.68139,281.592,-294.182)">
                    <path d="M22.565,87.66L23.125,87.66" style="fill:none;fill-rule:nonzero;stroke:black;stroke-width:0.14px;"/>
                </g>
                <g transform="matrix(4.68444,0,6.51928e-08,4.68139,67.56,-293.255)">
                    <path d="M18.727,89.363L19.758,89.363L19.758,85.803L18.636,86.028L18.636,85.453L19.752,85.228L20.383,85.228L20.383,89.363L21.414,89.363L21.414,89.894L18.727,89.894L18.727,89.363Z" style="fill-rule:nonzero;"/>
                </g>
                <g transform="matrix(4.68444,0,6.51928e-08,4.68139,67.56,45.5935)">
                    <path d="M29.618,87.654L45.932,87.632L52.458,87.59L56.374,87.536L59.636,87.458L62.247,87.361L64.204,87.258L66.162,87.12L67.467,87.002L68.772,86.859L70.078,86.685L71.383,86.473L72.688,86.216L73.993,85.905L75.298,85.529L75.951,85.313L76.603,85.075L77.256,84.814L77.908,84.528L78.561,84.214L79.214,83.871L79.866,83.496L80.519,83.086L81.171,82.639L81.824,82.151L82.476,81.62L83.129,81.043L83.782,80.417L84.434,79.739L85.087,79.005L85.739,78.214L86.392,77.361L87.044,76.446L87.697,75.465L88.35,74.417L89.002,73.3L89.655,72.113L90.307,70.857L90.96,69.531L91.612,68.138L92.265,66.678L92.918,65.156L93.57,63.575L94.223,61.94L95.528,58.531L96.833,54.985L100.75,44.206L102.05,40.797L102.71,39.162L103.36,37.581L104.01,36.059L104.66,34.599L105.32,33.206L105.97,31.88L106.62,30.624L107.27,29.437L107.93,28.32L108.58,27.272L109.23,26.291L109.88,25.375L110.54,24.523L111.19,23.732L111.84,22.998L112.49,22.32L113.15,21.694L113.8,21.117L114.45,20.586L115.11,20.098L115.76,19.651L116.41,19.241L117.06,18.865L117.72,18.522L118.37,18.209L119.02,17.923L119.67,17.662L120.33,17.424L120.98,17.208L122.28,16.831L123.59,16.52L124.89,16.264L126.2,16.052L127.5,15.878L128.81,15.735L130.77,15.566L132.72,15.441L134.68,15.348L137.29,15.26L140.56,15.189L145.12,15.135L151.65,15.1L159.48,15.086" style="fill:none;fill-rule:nonzero;stroke:rgb(31,119,180);stroke-width:0.8px;stroke-linecap:square;"/>
                </g>
                <g transform="matrix(4.68444,0,6.51928e-08,4.68139,67.56,45.5748)">
                    <path d="M29.618,87.66L70.73,87.644L74.646,87.606L76.603,87.562L78.561,87.481L79.866,87.393L81.171,87.262L81.824,87.175L82.476,87.068L83.129,86.938L83.782,86.78L84.434,86.588L85.087,86.355L85.739,86.072L86.392,85.73L87.044,85.317L87.697,84.818L88.35,84.218L89.002,83.5L89.655,82.643L90.307,81.624L90.96,80.421L91.612,79.009L92.265,77.365L92.918,75.469L93.57,73.304L94.223,70.861L94.875,68.142L95.528,65.16L96.18,61.944L96.833,58.535L98.138,51.372L99.443,44.21L100.1,40.801L100.75,37.585L101.4,34.603L102.05,31.884L102.71,29.441L103.36,27.276L104.01,25.379L104.66,23.736L105.32,22.324L105.97,21.121L106.62,20.102L107.27,19.245L107.93,18.526L108.58,17.927L109.23,17.428L109.88,17.015L110.54,16.672L111.19,16.39L111.84,16.157L112.49,15.965L113.15,15.807L113.8,15.677L114.45,15.57L115.76,15.411L117.06,15.303L118.37,15.231L120.33,15.165L122.94,15.121L126.85,15.095L135.99,15.085L159.48,15.084" style="fill:none;fill-rule:nonzero;stroke:rgb(255,127,14);stroke-width:0.8px;stroke-linecap:square;"/>
                </g>
                <g transform="matrix(4.68444,0,6.51928e-08,4.68139,67.56,45.5748)">
                    <path d="M29.618,87.66L79.866,87.644L82.476,87.606L83.782,87.562L85.087,87.481L85.739,87.418L86.392,87.334L87.044,87.221L87.697,87.068L88.35,86.863L89.002,86.588L89.655,86.22L90.307,85.73L90.96,85.079L91.612,84.218L92.265,83.09L92.918,81.624L93.57,79.743L94.223,77.365L94.875,74.421L95.528,70.861L96.18,66.682L96.833,61.944L97.486,56.775L98.791,45.97L99.443,40.801L100.1,36.063L100.75,31.884L101.4,28.324L102.05,25.379L102.71,23.002L103.36,21.121L104.01,19.655L104.66,18.526L105.32,17.666L105.97,17.015L106.62,16.524L107.27,16.157L107.93,15.882L108.58,15.677L109.23,15.524L109.88,15.411L110.54,15.326L111.84,15.217L113.15,15.157L115.11,15.114L118.37,15.091L127.5,15.084L159.48,15.084" style="fill:none;fill-rule:nonzero;stroke:rgb(44,160,44);stroke-width:0.8px;stroke-linecap:square;"/>
                </g>
                <g transform="matrix(4.68444,0,6.51928e-08,4.68139,67.56,45.5748)">
                    <rect x="23.061" y="11.391" width="0.128" height="79.962"/>
                </g>
                <g transform="matrix(4.68444,0,6.51928e-08,4.68139,67.56,45.5748)">
                    <rect x="165.91" y="11.391" width="0.128" height="79.962"/>
                </g>
                <g transform="matrix(4.68444,0,6.51928e-08,4.68139,67.56,419.309)">
                    <rect x="23.061" y="11.391" width="142.98" height="0.128"/>
                </g>
            </g>
        </g>
        <g transform="matrix(1,0,0,1,0,452.4)">
            <rect x="491.64" y="24.48" width="69.96" height="38.64" style="fill:white;"/>
        </g>
        <g transform="matrix(1,0,0,1,0,368.76)">
            <rect x="100.08" y="67.44" width="69.96" height="36.36" style="fill:white;"/>
        </g>
        <g transform="matrix(1,0,0,1,0,-308.04)">
            <rect x="100.08" y="405.84" width="69.96" height="36.36" style="fill:white;"/>
        </g>
        <g>
            <text x="265.9px" y="74.16px" style="font-family:'CambriaMath', 'Cambria Math', serif;font-size:24px;">𝑘</text>
            <text x="286.42px" y="74.16px" style="font-family:'CambriaMath', 'Cambria Math', serif;font-size:24px;">= <tspan x="311.023px " y="74.16px ">1</tspan></text>
        </g>
        <g>
            <text x="513.07px" y="503.424px" style="font-family:'CambriaMath', 'Cambria Math', serif;font-size:24px;">𝐷</text>
            <text x="528.19px" y="508.344px" style="font-family:'CambriaMath', 'Cambria Math', serif;font-size:17.52px;">𝑞</text>
        </g>
        <g>
            <text x="112.61px" y="462.12px" style="font-family:'CambriaMath', 'Cambria Math', serif;font-size:24px;">𝜖</text>
            <text x="123.77px" y="467.04px" style="font-family:'CambriaMath', 'Cambria Math', serif;font-size:17.52px;">m</text>
            <text x="139.994px" y="467.04px" style="font-family:'CambriaMath', 'Cambria Math', serif;font-size:17.52px;">i<tspan x="145.617px " y="467.04px ">n</tspan></text>
        </g>
        <g>
            <text x="111.29px" y="123.67px" style="font-family:'CambriaMath', 'Cambria Math', serif;font-size:24.024px;">𝜖</text>
            <text x="122.45px" y="128.59px" style="font-family:'CambriaMath', 'Cambria Math', serif;font-size:17.544px;">m</text>
            <text x="138.696px" y="128.59px" style="font-family:'CambriaMath', 'Cambria Math', serif;font-size:17.544px;">a<tspan x="148.38px " y="128.59px ">x</tspan></text>
        </g>
        <g>
            <text x="472.99px" y="75.34px" style="font-family:'CambriaMath', 'Cambria Math', serif;font-size:24px;">𝑘</text>
            <text x="493.51px" y="75.34px" style="font-family:'CambriaMath', 'Cambria Math', serif;font-size:24px;">= <tspan x="518.113px " y="75.34px ">2</tspan></text>
        </g>
        <g>
            <text x="680.11px" y="75.34px" style="font-family:'CambriaMath', 'Cambria Math', serif;font-size:24px;">𝑘</text>
            <text x="700.63px" y="75.34px" style="font-family:'CambriaMath', 'Cambria Math', serif;font-size:24px;">= <tspan x="725.233px " y="75.34px ">3</tspan></text>
        </g>
        <g transform="matrix(1,0,0,1,0,-407.04)">
            <path d="M348.72,473.52L434.43,473.52" style="fill:none;fill-rule:nonzero;stroke:rgb(31,119,180);stroke-width:6px;stroke-linejoin:miter;"/>
        </g>
        <g transform="matrix(1,0,0,1,0,-404.64)">
            <path d="M555.72,472.32L641.43,472.32" style="fill:none;fill-rule:nonzero;stroke:rgb(255,127,14);stroke-width:6px;stroke-linejoin:miter;"/>
        </g>
        <g transform="matrix(1,0,0,1,0,-404.64)">
            <path d="M762.84,472.32L848.55,472.32" style="fill:none;fill-rule:nonzero;stroke:rgb(44,160,44);stroke-width:6px;stroke-linejoin:miter;"/>
        </g>
        <g transform="matrix(1,0,0,1,0,455.16)">
            <rect x="805.68" y="24.24" width="69.96" height="36.36" style="fill:white;"/>
        </g>
        <g>
            <text x="813.02px" y="505.272px" style="font-family:'CambriaMath', 'Cambria Math', serif;font-size:24px;">𝐷</text>
            <text x="828.14px" y="510.192px" style="font-family:'CambriaMath', 'Cambria Math', serif;font-size:17.52px;">n<tspan x="839.128px " y="510.192px ">o</tspan></text>
            <text x="849.637px" y="510.192px" style="font-family:'CambriaMath', 'Cambria Math', serif;font-size:17.52px;">r<tspan x="857.906px " y="510.192px ">m</tspan></text>
        </g>
    </g>
</svg>
